<svg width="25" height="21" viewBox="0 0 25 21" fill="none" xmlns="http://www.w3.org/2000/svg">
<path d="M22.7029 0H20.8929C16.9029 0.14 6.77291 0.52 6.54291 0.52C6.48853 0.509976 6.43262 0.511942 6.37907 0.525759C6.32553 0.539577 6.27565 0.564913 6.23291 0.6C5.79143 1.25261 5.58028 2.03385 5.63291 2.82C5.62782 3.41777 5.70522 4.01338 5.86291 4.59C5.92132 4.80449 6.04335 4.99624 6.21291 5.14C6.35082 5.21271 6.4993 5.26333 6.65291 5.29C6.92925 5.36101 7.20981 5.41445 7.49291 5.45L9.80291 5.56C11.4129 5.56 14.7029 5.65 17.5529 5.64C20.4029 5.63 22.8529 5.57 22.8729 5.56C23.1763 5.448 23.4239 5.22193 23.5629 4.93C23.8808 4.23417 24.0347 3.47468 24.0129 2.71C24.0129 1.52 23.5429 0.3 22.7029 0ZM22.6429 4.11C22.6016 4.22545 22.548 4.33609 22.4829 4.44L9.81291 4.69H7.52291L6.64291 4.52C6.60457 4.44561 6.57117 4.36877 6.54291 4.29C6.3666 3.68314 6.29226 3.05121 6.32291 2.42C6.3061 1.99044 6.39902 1.56368 6.59291 1.18C7.68291 1.18 13.4229 1.18 17.7129 1.13H22.0329H22.3129H22.4429C22.7104 1.44419 22.8497 1.84768 22.8329 2.26C22.8926 2.88316 22.828 3.51198 22.6429 4.11Z" fill="#F3E6D4"/>
<path d="M22.3242 1.07812C22.3598 1.1059 22.4006 1.12629 22.4442 1.13812C22.4107 1.10712 22.3691 1.08631 22.3242 1.07812Z" fill="#F3E6D4"/>
<path d="M20.3329 7.91016H18.6829L5.68294 8.34016C5.59011 8.34016 5.50109 8.37703 5.43545 8.44267C5.36981 8.50831 5.33294 8.59733 5.33294 8.69016C5.33554 8.78389 5.37462 8.87291 5.44185 8.93827C5.50908 9.00364 5.59917 9.04019 5.69294 9.04016L19.8929 8.95016C20.2729 9.10016 20.3529 9.62016 20.4129 10.1702C20.4699 10.7861 20.4088 11.4072 20.2329 12.0002C20.1907 12.1202 20.1336 12.2344 20.0629 12.3402L7.40294 12.5802H5.10294L4.25294 12.4402C4.25294 12.3902 4.15294 12.3002 4.12294 12.2102C3.95165 11.6023 3.8774 10.9712 3.90294 10.3402C3.87224 9.85066 4.00599 9.36494 4.28294 8.96016C4.31166 8.9322 4.3345 8.89877 4.35009 8.86185C4.36568 8.82492 4.37371 8.78524 4.37371 8.74516C4.37371 8.70507 4.36568 8.66539 4.35009 8.62847C4.3345 8.59154 4.31166 8.55811 4.28294 8.53016C4.25412 8.50113 4.21985 8.47809 4.18209 8.46237C4.14433 8.44665 4.10384 8.43856 4.06294 8.43856C4.02204 8.43856 3.98154 8.44665 3.94378 8.46237C3.90603 8.47809 3.87175 8.50113 3.84294 8.53016C3.38204 9.17101 3.15923 9.95261 3.21294 10.7402C3.22173 11.3437 3.316 11.943 3.49294 12.5202C3.54889 12.7385 3.67117 12.9342 3.84294 13.0802C3.98158 13.1512 4.12979 13.2017 4.28294 13.2302C4.55948 13.3003 4.83999 13.3537 5.12294 13.3902L7.44294 13.5202C8.81294 13.5202 11.4429 13.6002 13.8929 13.6102C17.2629 13.6102 20.4729 13.5202 20.5129 13.5102C20.6615 13.4566 20.798 13.3743 20.9147 13.2679C21.0314 13.1615 21.126 13.0332 21.1929 12.8902C21.5138 12.1882 21.6678 11.4215 21.6429 10.6502C21.6229 9.37016 21.1629 8.21016 20.3329 7.91016Z" fill="#F3E6D4"/>
<path d="M17.0834 15.3984H15.2734C11.2734 15.5284 1.15338 15.9184 0.923377 15.8784C0.868294 15.8666 0.811127 15.8686 0.757015 15.8843C0.702904 15.9 0.653545 15.9289 0.613377 15.9684C0.154844 16.6282 -0.0575025 17.4281 0.0133771 18.2284C0.00828746 18.8262 0.0856836 19.4218 0.243377 19.9984C0.309163 20.2011 0.430413 20.3812 0.593377 20.5184C0.734147 20.5819 0.881797 20.6289 1.03338 20.6584C1.30839 20.7352 1.58938 20.7888 1.87338 20.8184L4.18338 20.9284C5.79338 20.9284 9.07338 21.0184 11.9334 21.0084C14.7934 20.9984 17.2234 20.9384 17.2534 20.9284C17.5545 20.8129 17.801 20.5879 17.9434 20.2984C18.2627 19.5996 18.4167 18.8365 18.3934 18.0684C18.3734 16.8684 17.9134 15.6984 17.0834 15.3984ZM17.0134 19.5184C16.9721 19.6339 16.9185 19.7445 16.8534 19.8484L4.18338 20.0984H1.89338L1.01338 19.9284C0.969125 19.8521 0.932289 19.7718 0.903377 19.6884C0.740304 19.0791 0.669517 18.4488 0.693377 17.8184C0.696657 17.3851 0.806557 16.9592 1.01338 16.5784H12.1234H16.4534H16.7334H16.8634C17.1267 16.895 17.2654 17.2968 17.2534 17.7084C17.2868 18.3215 17.2054 18.9353 17.0134 19.5184Z" fill="#F3E6D4"/>
<path d="M16.7031 16.5195C16.7374 16.5493 16.7787 16.5699 16.8231 16.5795C16.7882 16.5507 16.7471 16.5302 16.7031 16.5195Z" fill="#F3E6D4"/>
</svg>
